<svg xmlns="http://www.w3.org/2000/svg" width="47.999" height="47.999" viewBox="0 0 47.999 47.999">
  <g id="Group_44" data-name="Group 44" transform="translate(-5073.363 86.645)">
    <path id="Path_88" data-name="Path 88" d="M5108.711-86.645h-22.7a12.826,12.826,0,0,0-12.651,12.921v22.157a12.826,12.826,0,0,0,12.651,12.921h22.7a12.826,12.826,0,0,0,12.651-12.921V-73.724A12.826,12.826,0,0,0,5108.711-86.645Z" transform="translate(0)" fill="#5d5d5d"/>
    <path id="Path_89" data-name="Path 89" d="M5091.258-44.008q.13-.209.418-.026a27.835,27.835,0,0,0,14.213,3.789A28.128,28.128,0,0,0,5116-42.153c.087-.035.214-.087.379-.157s.283-.122.353-.156a.465.465,0,0,1,.614.156c.148.209.1.4-.143.575q-.472.34-1.2.784a19.583,19.583,0,0,1-5.017,2.064,21.131,21.131,0,0,1-5.408.732,20.93,20.93,0,0,1-7.708-1.424,21.227,21.227,0,0,1-6.507-4.011.358.358,0,0,1-.156-.261A.285.285,0,0,1,5091.258-44.008Zm7.865-7.447a5.27,5.27,0,0,1,.888-3.083,5.482,5.482,0,0,1,2.431-1.934,13.13,13.13,0,0,1,3.475-.862q.706-.078,2.3-.209v-.444a4.672,4.672,0,0,0-.365-2.247,1.963,1.963,0,0,0-1.726-.784h-.209a2.86,2.86,0,0,0-1.49.549,2.146,2.146,0,0,0-.81,1.306.662.662,0,0,1-.522.6l-3.006-.366q-.443-.105-.444-.47a.767.767,0,0,1,.027-.183,5.009,5.009,0,0,1,2.182-3.449,8.184,8.184,0,0,1,4.063-1.255h.654a6.607,6.607,0,0,1,4.651,1.542,5.014,5.014,0,0,1,.483.562,4.846,4.846,0,0,1,.352.536,2.736,2.736,0,0,1,.236.679c.07.3.123.5.156.614a3.711,3.711,0,0,1,.079.732c.017.374.026.6.026.666v6.324a3.778,3.778,0,0,0,.2,1.241,3.248,3.248,0,0,0,.38.81q.182.248.6.8a.785.785,0,0,1,.157.418.45.45,0,0,1-.21.366q-2.169,1.881-2.351,2.038a.728.728,0,0,1-.758.053,8.729,8.729,0,0,1-.64-.6c-.182-.192-.313-.331-.392-.418a5.854,5.854,0,0,1-.379-.51c-.174-.252-.3-.422-.366-.509a6.412,6.412,0,0,1-2.875,1.986,7.878,7.878,0,0,1-2.195.262,4.579,4.579,0,0,1-3.3-1.241A4.638,4.638,0,0,1,5099.123-51.455Zm4.494-.522a2.475,2.475,0,0,0,.509,1.633,1.691,1.691,0,0,0,1.372.614,1.338,1.338,0,0,0,.223-.026,1.352,1.352,0,0,1,.2-.026,2.653,2.653,0,0,0,1.7-1.411,4.122,4.122,0,0,0,.432-1.084,4.976,4.976,0,0,0,.156-.954q.013-.366.013-1.2v-.654a9.54,9.54,0,0,0-2.3.209A2.8,2.8,0,0,0,5103.617-51.978Zm10.975,8.414a.832.832,0,0,1,.156-.209,4.116,4.116,0,0,1,1.255-.6,8.5,8.5,0,0,1,1.934-.288,1.561,1.561,0,0,1,.5.026q1.177.1,1.411.392a.853.853,0,0,1,.1.47v.183a5.953,5.953,0,0,1-.5,2.156,5.013,5.013,0,0,1-1.385,2,.391.391,0,0,1-.235.1.233.233,0,0,1-.1-.026c-.105-.052-.13-.148-.079-.287a9.986,9.986,0,0,0,.968-3.162.668.668,0,0,0-.105-.418q-.261-.314-1.463-.314c-.3,0-.646.018-1.045.053q-.653.078-1.2.156a.3.3,0,0,1-.209-.052.085.085,0,0,1-.026-.1A.189.189,0,0,1,5114.591-43.564Z" transform="translate(-8.445 -10.583)" fill="#fff"/>
  </g>
</svg>
