<svg xmlns="http://www.w3.org/2000/svg" xmlns:xlink="http://www.w3.org/1999/xlink" width="333" height="108" viewBox="0 0 333 108">
  <defs>
    <filter id="Path_197" x="0" y="0" width="108" height="108" filterUnits="userSpaceOnUse">
      <feOffset dy="3" input="SourceAlpha"/>
      <feGaussianBlur stdDeviation="3" result="blur"/>
      <feFlood flood-color="#ff5d9e" flood-opacity="0.302"/>
      <feComposite operator="in" in2="blur"/>
      <feComposite in="SourceGraphic"/>
    </filter>
    <filter id="Path_196" x="225" y="0" width="108" height="108" filterUnits="userSpaceOnUse">
      <feOffset dy="3" input="SourceAlpha"/>
      <feGaussianBlur stdDeviation="3" result="blur-2"/>
      <feFlood flood-color="#3fefef" flood-opacity="0.302"/>
      <feComposite operator="in" in2="blur-2"/>
      <feComposite in="SourceGraphic"/>
    </filter>
    <filter id="Path_195" x="113" y="0" width="108" height="108" filterUnits="userSpaceOnUse">
      <feOffset dy="3" input="SourceAlpha"/>
      <feGaussianBlur stdDeviation="3" result="blur-3"/>
      <feFlood flood-color="#8f71ff" flood-opacity="0.302"/>
      <feComposite operator="in" in2="blur-3"/>
      <feComposite in="SourceGraphic"/>
    </filter>
  </defs>
  <g id="Group_8" data-name="Group 8" transform="translate(-21 -293)">
    <g transform="matrix(1, 0, 0, 1, 21, 293)" filter="url(#Path_197)">
      <path id="Path_197-2" data-name="Path 197" d="M10,0H80A10,10,0,0,1,90,10V80A10,10,0,0,1,80,90H10A10,10,0,0,1,0,80V10A10,10,0,0,1,10,0Z" transform="translate(9 6)" fill="#ff5d9e"/>
    </g>
    <g transform="matrix(1, 0, 0, 1, 21, 293)" filter="url(#Path_196)">
      <path id="Path_196-2" data-name="Path 196" d="M10,0H80A10,10,0,0,1,90,10V80A10,10,0,0,1,80,90H10A10,10,0,0,1,0,80V10A10,10,0,0,1,10,0Z" transform="translate(234 6)" fill="#3fefef"/>
    </g>
    <g transform="matrix(1, 0, 0, 1, 21, 293)" filter="url(#Path_195)">
      <path id="Path_195-2" data-name="Path 195" d="M10,0H80A10,10,0,0,1,90,10V80A10,10,0,0,1,80,90H10A10,10,0,0,1,0,80V10A10,10,0,0,1,10,0Z" transform="translate(122 6)" fill="#8f71ff"/>
    </g>
    <text id="Pay" transform="translate(62 370)" fill="#fff" font-size="14" font-family="Montserrat-SemiBold, Montserrat" font-weight="600"><tspan x="0" y="0">Pay</tspan></text>
    <text id="Transfer" transform="translate(188 370)" fill="#fff" font-size="14" font-family="Montserrat-SemiBold, Montserrat" font-weight="600"><tspan x="-29.477" y="0">Transfer</tspan></text>
    <text id="Bills" transform="translate(300 370)" fill="#fff" font-size="14" font-family="Montserrat-SemiBold, Montserrat" font-weight="600"><tspan x="-15.001" y="0">Bills</tspan></text>
    <g id="coin" transform="translate(63.734 321.102)">
      <path id="Path_238" data-name="Path 238" d="M160.22,0a7.21,7.21,0,1,0,7.21,7.21A7.218,7.218,0,0,0,160.22,0Zm.757,10.488v.158a.756.756,0,0,1-1.513,0v-.073a2.738,2.738,0,0,1-1.069-.455.756.756,0,1,1,.828-1.266,1.341,1.341,0,0,0,.992.256.718.718,0,0,0,.718-.61.5.5,0,0,0-.379-.6,6.313,6.313,0,0,1-1.728-.834,1.9,1.9,0,0,1,.638-3.171V3.782a.756.756,0,1,1,1.513,0v.062a2.463,2.463,0,0,1,.852.46.756.756,0,0,1-1.023,1.114A.913.913,0,0,0,160,5.305a.421.421,0,0,0-.269.333.3.3,0,0,0,.029.233,5.392,5.392,0,0,0,1.3.6,2.125,2.125,0,0,1-.082,4.018Z" transform="translate(-145.296)" fill="#fff"/>
      <path id="Path_239" data-name="Path 239" d="M21.871,275.034,14.527,277.2a4.828,4.828,0,0,1,.357,1.829v.266a2.6,2.6,0,0,1-3.661,2.367l-3.85-1.732a.756.756,0,0,1,.621-1.379l3.85,1.732a1.082,1.082,0,0,0,1.527-.987v-.266a3.273,3.273,0,0,0-1.951-2.971l-3.326-1.5a4.9,4.9,0,0,0-4.062.018L.453,276.2a.756.756,0,0,0-.443.688v8.048a.757.757,0,0,0,1.026.726l5.036-1.918,5.99,2.1a4.874,4.874,0,0,0,4.105-.407l8.148-4.8a3.081,3.081,0,0,0-2.444-5.6Z" transform="translate(-0.01 -260.304)" fill="#fff"/>
    </g>
    <g id="transfer-2" data-name="transfer" transform="translate(173.906 321.102)">
      <g id="Group_170" data-name="Group 170" transform="translate(0 0)">
        <g id="Group_169" data-name="Group 169">
          <path id="Path_240" data-name="Path 240" d="M26.574,19.432H6.858V16.861a.858.858,0,0,0-1.464-.607L.251,21.4a.858.858,0,0,0,0,1.212l5.143,5.143a.857.857,0,0,0,1.464-.605V24.576H26.574a.858.858,0,0,0,.857-.857V20.29A.856.856,0,0,0,26.574,19.432Z" transform="translate(0 -16.004)" fill="#fff"/>
        </g>
      </g>
      <g id="Group_172" data-name="Group 172" transform="translate(0 13.714)">
        <g id="Group_171" data-name="Group 171">
          <path id="Path_241" data-name="Path 241" d="M27.188,277.379l-5.143-5.145a.858.858,0,0,0-1.464.607v2.572H.865a.858.858,0,0,0-.857.857V279.7a.858.858,0,0,0,.857.857H20.581v2.572a.858.858,0,0,0,1.464.607l5.143-5.143A.858.858,0,0,0,27.188,277.379Z" transform="translate(-0.008 -271.983)" fill="#fff"/>
        </g>
      </g>
    </g>
    <g id="wallet" transform="translate(288.077 321.102)">
      <path id="Path_242" data-name="Path 242" d="M321.185,33.952h3.6v7h-3.6Z" transform="translate(-305.874 -32.251)" fill="#fff"/>
      <path id="Path_243" data-name="Path 243" d="M83.521,0h1.9V8.7h-1.9Z" transform="translate(-80.118)" fill="#fff"/>
      <path id="Path_244" data-name="Path 244" d="M16.566,137.707h.95v-1.9h-.95a.95.95,0,1,0,0,1.9Z" transform="translate(-15.616 -129.003)" fill="#fff"/>
      <path id="Path_245" data-name="Path 245" d="M423.111,135.808h1.9v1.9h-1.9Z" transform="translate(-402.693 -129.003)" fill="#fff"/>
      <path id="Path_246" data-name="Path 246" d="M16.84,215.593H37.934v-3.6H33.113l-2.073-4.154,2.073-4.154h4.821v-3.6H16.566a2.439,2.439,0,0,1-.95-.191v14.476A1.226,1.226,0,0,0,16.84,215.593Z" transform="translate(-15.616 -189.877)" fill="#fff"/>
      <path id="Path_247" data-name="Path 247" d="M151.424,8.7h7V0h-7Zm3.507-6.8h1.694V3.4h-1.694Zm1.694,3.4V6.8h-1.694V5.3Z" transform="translate(-144.619 0)" fill="#fff"/>
      <path id="Path_248" data-name="Path 248" d="M358.294,310.87h5.725v-5.3h-5.725l-1.323,2.651Zm.393-3.4h1.694v1.5h-1.694Z" transform="translate(-339.867 -290.257)" fill="#fff"/>
    </g>
  </g>
</svg>
