<svg xmlns="http://www.w3.org/2000/svg" width="47.999" height="47.999" viewBox="0 0 47.999 47.999">
  <g id="Group_43" data-name="Group 43" transform="translate(-4840.644 -77.589)">
    <path id="Path_87" data-name="Path 87" d="M4875.991,77.589h-22.7a12.825,12.825,0,0,0-12.651,12.921v22.157a12.825,12.825,0,0,0,12.651,12.921h22.7a12.826,12.826,0,0,0,12.652-12.921V90.51A12.826,12.826,0,0,0,4875.991,77.589Z" fill="#f876aa"/>
    <path id="Dribbble" d="M4886.547,103.982a14.7,14.7,0,0,0-1.372-2.528,14.886,14.886,0,0,0-22.872-2.2,15.024,15.024,0,0,0-1.815,2.2,14.842,14.842,0,0,0-2.242,5.327,15.041,15.041,0,0,0,0,6,14.915,14.915,0,0,0,2.242,5.327,14.862,14.862,0,0,0,4.019,4.017,14.869,14.869,0,0,0,16.649,0,14.88,14.88,0,0,0,4.019-4.017,14.938,14.938,0,0,0,2.242-5.327,15.041,15.041,0,0,0,0-6A14.857,14.857,0,0,0,4886.547,103.982Zm-13.715-6.918a12.662,12.662,0,0,1,8.4,3.173c-.031.047-1.842,2.8-6.641,4.6a64.791,64.791,0,0,0-4.751-7.417A12.7,12.7,0,0,1,4872.832,97.064Zm-3.045.369,0,0-.039.007A.31.31,0,0,0,4869.787,97.433Zm-2.379.847a76.091,76.091,0,0,1,4.721,7.324,47.025,47.025,0,0,1-11.738,1.553A12.716,12.716,0,0,1,4867.408,98.28Zm-4.032,19.993a12.666,12.666,0,0,1-3.258-8.5c0-.135.007-.268.011-.4a46.6,46.6,0,0,0,13.054-1.812c.364.713.713,1.439,1.031,2.162-.168.045-.335.1-.5.152a20.111,20.111,0,0,0-10.341,8.389Zm9.457,4.219a12.656,12.656,0,0,1-7.936-2.785l-.164-.13.164.13.122.093s2.438-5.314,9.978-7.942c.028-.011.058-.017.085-.026a52.735,52.735,0,0,1,2.715,9.652A12.665,12.665,0,0,1,4872.832,122.492Zm7.105-2.171a54.927,54.927,0,0,0-2.476-9.08,18.435,18.435,0,0,1,7.924.555A12.72,12.72,0,0,1,4879.938,120.321Zm-3.249-11.088c-.091-.217-.18-.436-.275-.655-.264-.623-.55-1.239-.846-1.845,5.022-2.05,7.061-5,7.084-5.031a12.664,12.664,0,0,1,2.892,7.947A29.419,29.419,0,0,0,4876.688,109.234Z" transform="translate(-8.188 -8.189)" fill="#fff"/>
  </g>
</svg>
