<svg xmlns="http://www.w3.org/2000/svg" xmlns:xlink="http://www.w3.org/1999/xlink" width="472.908" height="286.184" viewBox="0 0 472.908 286.184">
  <defs>
    <clipPath id="clip-path">
      <circle id="Ellipse_10" data-name="Ellipse 10" cx="49.921" cy="49.921" r="49.921" fill="none"/>
    </clipPath>
  </defs>
  <g id="Group_166" data-name="Group 166" transform="translate(53.908 44.841)">
    <g id="Group_148" data-name="Group 148" transform="translate(-121.15 -685.013)" opacity="0.3">
      <path id="Path_204" data-name="Path 204" d="M101.536,829.43a65.69,65.69,0,0,1,13.583-10.442L91.094,843.014A65.674,65.674,0,0,1,101.536,829.43Z" transform="translate(-15.077 -15.078)" fill="#fff"/>
      <path id="Path_205" data-name="Path 205" d="M113.829,799.329a65.638,65.638,0,0,1,11.084-2.518l-56,56a65.618,65.618,0,0,1,2.518-11.084Z" transform="translate(-1.059 -1.059)" fill="#fff"/>
      <path id="Path_206" data-name="Path 206" d="M139.762,795.5,67.606,867.656a65.782,65.782,0,0,1-.35-8.217l64.29-64.29A65.754,65.754,0,0,1,139.762,795.5Z" transform="translate(0)" fill="#fff"/>
      <path id="Path_207" data-name="Path 207" d="M148.151,798.684a65.577,65.577,0,0,1,6.806,1.759L72.549,882.852a65.68,65.68,0,0,1-1.76-6.807Z" transform="translate(-2.242 -2.243)" fill="#fff"/>
      <path id="Path_208" data-name="Path 208" d="M166.429,808.609q2.961,1.223,5.82,2.746L83.461,900.143q-1.523-2.854-2.746-5.819Z" transform="translate(-8.516 -8.517)" fill="#fff"/>
      <path id="Path_209" data-name="Path 209" d="M185.938,823.2q2.57,1.645,5.013,3.554l-92.1,92.1q-1.909-2.44-3.554-5.013Z" transform="translate(-17.737 -17.737)" fill="#fff"/>
      <path id="Path_210" data-name="Path 210" d="M208.67,843.778q1.077,1.077,2.093,2.19l-92.689,92.689q-1.113-1.016-2.19-2.093t-2.093-2.19l92.689-92.689Q207.593,842.7,208.67,843.778Z" transform="translate(-29.425 -29.425)" fill="#fff"/>
      <path id="Path_211" data-name="Path 211" d="M227.971,863.769q1.909,2.44,3.555,5.013l-90.637,90.637q-2.57-1.645-5.013-3.554Z" transform="translate(-43.385 -43.386)" fill="#fff"/>
      <path id="Path_212" data-name="Path 212" d="M250.438,889.545q1.523,2.854,2.746,5.819L167.47,981.079q-2.961-1.223-5.82-2.746Z" transform="translate(-59.679 -59.68)" fill="#fff"/>
      <path id="Path_213" data-name="Path 213" d="M274.008,919.494a65.509,65.509,0,0,1,1.76,6.806l-77.361,77.361a65.429,65.429,0,0,1-6.806-1.76Z" transform="translate(-78.612 -78.612)" fill="#fff"/>
      <path id="Path_214" data-name="Path 214" d="M299.318,962.923l-64.29,64.29a65.821,65.821,0,0,1-8.217-.35l72.157-72.156A65.709,65.709,0,0,1,299.318,962.923Z" transform="translate(-100.87 -100.871)" fill="#fff"/>
      <path id="Path_215" data-name="Path 215" d="M326.053,997.951a65.687,65.687,0,0,1-2.518,11.084l-42.393,42.393a65.654,65.654,0,0,1-11.084,2.518Z" transform="translate(-128.208 -128.208)" fill="#fff"/>
      <path id="Path_216" data-name="Path 216" d="M348.372,1076.266a65.708,65.708,0,0,1-13.584,10.443l24.026-24.026A65.689,65.689,0,0,1,348.372,1076.266Z" transform="translate(-169.127 -169.127)" fill="#fff"/>
    </g>
    <g id="Group_142" data-name="Group 142" transform="translate(-1268.291 -494.882)">
      <g id="Group_141" data-name="Group 141" transform="translate(1587.449 450.041)" opacity="0.33" clip-path="url(#clip-path)">
        <rect id="Rectangle_41" data-name="Rectangle 41" width="30.054" height="0.623" transform="translate(96.555 81.653) rotate(-45)" fill="#fff"/>
        <rect id="Rectangle_42" data-name="Rectangle 42" width="32.826" height="0.623" transform="translate(62.501 115.707) rotate(-45)" fill="#fff"/>
        <rect id="Rectangle_43" data-name="Rectangle 43" width="13.924" height="0.622" transform="translate(41.813 136.396) rotate(-45)" fill="#8d8c92"/>
        <rect id="Rectangle_44" data-name="Rectangle 44" width="8.671" height="0.622" transform="translate(54.014 124.194) rotate(-45)" fill="#8d8c92"/>
        <rect id="Rectangle_45" data-name="Rectangle 45" width="13.924" height="0.622" transform="translate(130.448 48.641) rotate(135)" fill="#fff"/>
        <rect id="Rectangle_46" data-name="Rectangle 46" width="8.672" height="0.623" transform="translate(94.64 84.449) rotate(135)" fill="#fff"/>
        <rect id="Rectangle_47" data-name="Rectangle 47" width="30.054" height="0.622" transform="translate(84.669 88.698) rotate(135)" fill="#fff"/>
        <rect id="Rectangle_48" data-name="Rectangle 48" width="13.924" height="0.622" transform="translate(61.062 112.304) rotate(135)" fill="#fff"/>
        <rect id="Rectangle_49" data-name="Rectangle 49" width="13.924" height="0.622" transform="translate(130.924 42.442) rotate(135)" fill="#fff"/>
        <rect id="Rectangle_50" data-name="Rectangle 50" width="8.671" height="0.622" transform="translate(48.861 124.506) rotate(135)" fill="#8d8c92"/>
        <rect id="Rectangle_51" data-name="Rectangle 51" width="32.826" height="0.623" transform="translate(110.236 63.131) rotate(135)" fill="#fff"/>
        <rect id="Rectangle_52" data-name="Rectangle 52" width="8.671" height="0.623" transform="translate(118.723 54.644) rotate(135)" fill="#fff"/>
        <rect id="Rectangle_53" data-name="Rectangle 53" width="30.054" height="0.623" transform="translate(121.619 40.302) rotate(135)" fill="#fff"/>
        <rect id="Rectangle_54" data-name="Rectangle 54" width="13.924" height="0.622" transform="translate(87.727 73.314) rotate(-45)" fill="#fff"/>
        <rect id="Rectangle_55" data-name="Rectangle 55" width="8.672" height="0.623" transform="translate(123.535 37.507) rotate(-45)" fill="#8d8c92"/>
        <rect id="Rectangle_56" data-name="Rectangle 56" width="30.054" height="0.623" transform="translate(51.758 110.164) rotate(135)" fill="#fff"/>
        <rect id="Rectangle_57" data-name="Rectangle 57" width="32.826" height="0.622" transform="translate(85.812 76.11) rotate(135)" fill="#fff"/>
        <rect id="Rectangle_58" data-name="Rectangle 58" width="8.672" height="0.622" transform="translate(53.673 107.369) rotate(-45)" fill="#fff"/>
        <rect id="Rectangle_59" data-name="Rectangle 59" width="30.054" height="0.623" transform="translate(76.733 90.031) rotate(-45)" fill="#fff"/>
        <rect id="Rectangle_60" data-name="Rectangle 60" width="32.826" height="0.623" transform="translate(121.028 45.736) rotate(-45)" fill="#fff"/>
        <rect id="Rectangle_61" data-name="Rectangle 61" width="13.924" height="0.623" transform="translate(100.339 66.424) rotate(-45)" fill="#fff"/>
        <rect id="Rectangle_62" data-name="Rectangle 62" width="13.924" height="0.622" transform="translate(30.477 136.286) rotate(-45)" fill="#8d8c92"/>
        <rect id="Rectangle_63" data-name="Rectangle 63" width="8.672" height="0.623" transform="translate(112.541 54.223) rotate(-45)" fill="#fff"/>
        <rect id="Rectangle_64" data-name="Rectangle 64" width="32.826" height="0.623" transform="translate(51.166 115.598) rotate(-45)" fill="#fff"/>
        <rect id="Rectangle_65" data-name="Rectangle 65" width="8.671" height="0.622" transform="translate(42.679 124.085) rotate(-45)" fill="#8d8c92"/>
        <rect id="Rectangle_66" data-name="Rectangle 66" width="30.054" height="0.622" transform="translate(93.36 62.839) rotate(135)" fill="#fff"/>
        <rect id="Rectangle_67" data-name="Rectangle 67" width="32.826" height="0.622" transform="translate(127.414 28.785) rotate(135)" fill="#fff"/>
        <rect id="Rectangle_68" data-name="Rectangle 68" width="13.924" height="0.623" transform="translate(59.467 95.852) rotate(-45)" fill="#fff"/>
        <rect id="Rectangle_69" data-name="Rectangle 69" width="8.672" height="0.622" transform="translate(95.275 60.044) rotate(-45)" fill="#fff"/>
        <rect id="Rectangle_70" data-name="Rectangle 70" width="32.826" height="0.623" transform="translate(57.552 98.647) rotate(135)" fill="#fff"/>
        <rect id="Rectangle_71" data-name="Rectangle 71" width="30.054" height="0.622" transform="translate(81.62 67.977) rotate(-45)" fill="#fff"/>
        <rect id="Rectangle_72" data-name="Rectangle 72" width="32.826" height="0.623" transform="translate(9.798 139.799) rotate(-45)" fill="#8d8c92"/>
        <rect id="Rectangle_73" data-name="Rectangle 73" width="13.924" height="0.622" transform="translate(105.227 44.37) rotate(-45)" fill="#fff"/>
        <rect id="Rectangle_74" data-name="Rectangle 74" width="13.924" height="0.623" transform="translate(35.365 114.232) rotate(-45)" fill="#fff"/>
        <rect id="Rectangle_75" data-name="Rectangle 75" width="8.671" height="0.623" transform="translate(117.428 32.169) rotate(-45)" fill="#fff"/>
        <rect id="Rectangle_76" data-name="Rectangle 76" width="32.826" height="0.622" transform="translate(56.053 93.544) rotate(-45)" fill="#fff"/>
        <rect id="Rectangle_77" data-name="Rectangle 77" width="8.672" height="0.623" transform="translate(47.566 102.031) rotate(-45)" fill="#fff"/>
        <rect id="Rectangle_78" data-name="Rectangle 78" width="30.054" height="0.622" transform="translate(33.225 104.928) rotate(-45)" fill="#fff"/>
        <rect id="Rectangle_79" data-name="Rectangle 79" width="13.924" height="0.622" transform="translate(67.117 71.915) rotate(135)" fill="#fff"/>
        <rect id="Rectangle_80" data-name="Rectangle 80" width="8.671" height="0.622" transform="translate(31.309 107.723) rotate(135)" fill="#fff"/>
        <rect id="Rectangle_81" data-name="Rectangle 81" width="30.054" height="0.623" transform="translate(103.087 35.066) rotate(-45)" fill="#fff"/>
        <rect id="Rectangle_82" data-name="Rectangle 82" width="32.826" height="0.623" transform="translate(69.032 69.12) rotate(-45)" fill="#fff"/>
        <rect id="Rectangle_83" data-name="Rectangle 83" width="8.672" height="0.623" transform="translate(101.171 37.861) rotate(135)" fill="#fff"/>
        <rect id="Rectangle_84" data-name="Rectangle 84" width="30.054" height="0.623" transform="translate(83.834 60.921) rotate(135)" fill="#fff"/>
        <rect id="Rectangle_85" data-name="Rectangle 85" width="32.826" height="0.622" transform="translate(39.539 105.216) rotate(135)" fill="#fff"/>
        <rect id="Rectangle_86" data-name="Rectangle 86" width="13.924" height="0.623" transform="translate(60.227 84.528) rotate(135)" fill="#fff"/>
        <rect id="Rectangle_87" data-name="Rectangle 87" width="8.672" height="0.623" transform="translate(48.026 96.729) rotate(135)" fill="#fff"/>
        <rect id="Rectangle_88" data-name="Rectangle 88" width="32.826" height="0.623" transform="translate(109.401 35.354) rotate(135)" fill="#fff"/>
        <rect id="Rectangle_89" data-name="Rectangle 89" width="8.672" height="0.623" transform="translate(117.888 26.867) rotate(135)" fill="#fff"/>
        <rect id="Rectangle_90" data-name="Rectangle 90" width="30.054" height="0.622" transform="translate(73.666 58.764) rotate(-45)" fill="#fff"/>
        <rect id="Rectangle_91" data-name="Rectangle 91" width="32.826" height="0.623" transform="translate(39.612 92.818) rotate(-45)" fill="#fff"/>
        <rect id="Rectangle_92" data-name="Rectangle 92" width="13.924" height="0.622" transform="translate(18.923 113.506) rotate(-45)" fill="#fff"/>
        <rect id="Rectangle_93" data-name="Rectangle 93" width="8.671" height="0.622" transform="translate(31.125 101.305) rotate(-45)" fill="#fff"/>
        <rect id="Rectangle_94" data-name="Rectangle 94" width="13.924" height="0.622" transform="translate(107.558 25.752) rotate(135)" fill="#fff"/>
        <rect id="Rectangle_95" data-name="Rectangle 95" width="8.672" height="0.623" transform="translate(71.75 61.56) rotate(135)" fill="#fff"/>
        <rect id="Rectangle_96" data-name="Rectangle 96" width="32.826" height="0.623" transform="translate(109.474 22.956) rotate(-45)" fill="#fff"/>
        <rect id="Rectangle_97" data-name="Rectangle 97" width="30.054" height="0.622" transform="translate(61.78 65.808) rotate(135)" fill="#fff"/>
        <rect id="Rectangle_98" data-name="Rectangle 98" width="13.924" height="0.622" transform="translate(38.173 89.415) rotate(135)" fill="#fff"/>
        <rect id="Rectangle_99" data-name="Rectangle 99" width="13.924" height="0.622" transform="translate(108.035 19.553) rotate(135)" fill="#fff"/>
        <rect id="Rectangle_100" data-name="Rectangle 100" width="8.671" height="0.622" transform="translate(25.972 101.616) rotate(135)" fill="#fff"/>
        <rect id="Rectangle_101" data-name="Rectangle 101" width="32.826" height="0.623" transform="translate(87.346 40.242) rotate(135)" fill="#fff"/>
        <rect id="Rectangle_102" data-name="Rectangle 102" width="8.671" height="0.623" transform="translate(95.834 31.754) rotate(135)" fill="#fff"/>
        <rect id="Rectangle_103" data-name="Rectangle 103" width="30.054" height="0.623" transform="translate(98.73 17.413) rotate(135)" fill="#fff"/>
        <rect id="Rectangle_104" data-name="Rectangle 104" width="13.924" height="0.622" transform="translate(64.838 50.425) rotate(-45)" fill="#fff"/>
        <rect id="Rectangle_105" data-name="Rectangle 105" width="8.672" height="0.623" transform="translate(100.646 14.617) rotate(-45)" fill="#fff"/>
        <rect id="Rectangle_106" data-name="Rectangle 106" width="30.054" height="0.623" transform="translate(28.868 87.275) rotate(135)" fill="#fff"/>
        <rect id="Rectangle_107" data-name="Rectangle 107" width="32.826" height="0.622" transform="translate(62.922 53.221) rotate(135)" fill="#fff"/>
        <rect id="Rectangle_108" data-name="Rectangle 108" width="8.672" height="0.623" transform="translate(30.784 84.479) rotate(-45)" fill="#fff"/>
        <rect id="Rectangle_109" data-name="Rectangle 109" width="30.054" height="0.623" transform="translate(53.844 67.142) rotate(-45)" fill="#fff"/>
        <rect id="Rectangle_110" data-name="Rectangle 110" width="32.826" height="0.623" transform="translate(98.139 22.847) rotate(-45)" fill="#fff"/>
        <rect id="Rectangle_111" data-name="Rectangle 111" width="13.924" height="0.623" transform="translate(77.45 43.535) rotate(-45)" fill="#fff"/>
        <rect id="Rectangle_112" data-name="Rectangle 112" width="13.924" height="0.622" transform="translate(7.588 113.397) rotate(-45)" fill="#fff"/>
        <rect id="Rectangle_113" data-name="Rectangle 113" width="8.672" height="0.623" transform="translate(89.651 31.334) rotate(-45)" fill="#fff"/>
        <rect id="Rectangle_114" data-name="Rectangle 114" width="32.826" height="0.623" transform="translate(28.277 92.709) rotate(-45)" fill="#fff"/>
        <rect id="Rectangle_115" data-name="Rectangle 115" width="8.672" height="0.622" transform="translate(19.789 101.196) rotate(-45)" fill="#fff"/>
        <rect id="Rectangle_116" data-name="Rectangle 116" width="30.054" height="0.622" transform="translate(70.471 39.95) rotate(135)" fill="#fff"/>
        <rect id="Rectangle_117" data-name="Rectangle 117" width="32.826" height="0.622" transform="translate(104.525 5.896) rotate(135)" fill="#fff"/>
        <rect id="Rectangle_118" data-name="Rectangle 118" width="13.924" height="0.623" transform="translate(36.578 72.963) rotate(-45)" fill="#fff"/>
        <rect id="Rectangle_119" data-name="Rectangle 119" width="8.672" height="0.622" transform="translate(72.386 37.155) rotate(-45)" fill="#fff"/>
        <rect id="Rectangle_120" data-name="Rectangle 120" width="32.826" height="0.623" transform="translate(34.663 75.758) rotate(135)" fill="#fff"/>
        <rect id="Rectangle_121" data-name="Rectangle 121" width="30.054" height="0.622" transform="translate(58.731 45.088) rotate(-45)" fill="#fff"/>
        <rect id="Rectangle_122" data-name="Rectangle 122" width="32.826" height="0.623" transform="translate(-13.091 116.91) rotate(-45)" fill="#fff"/>
        <rect id="Rectangle_123" data-name="Rectangle 123" width="13.924" height="0.622" transform="translate(82.338 21.481) rotate(-45)" fill="#fff"/>
        <rect id="Rectangle_124" data-name="Rectangle 124" width="13.924" height="0.623" transform="translate(12.476 91.343) rotate(-45)" fill="#fff"/>
        <rect id="Rectangle_125" data-name="Rectangle 125" width="8.671" height="0.623" transform="translate(94.539 9.28) rotate(-45)" fill="#fff"/>
        <rect id="Rectangle_126" data-name="Rectangle 126" width="32.826" height="0.623" transform="translate(33.164 70.655) rotate(-45)" fill="#fff"/>
        <rect id="Rectangle_127" data-name="Rectangle 127" width="8.672" height="0.623" transform="translate(24.677 79.142) rotate(-45)" fill="#fff"/>
        <rect id="Rectangle_128" data-name="Rectangle 128" width="30.054" height="0.622" transform="translate(10.335 82.038) rotate(-45)" fill="#fff"/>
        <rect id="Rectangle_129" data-name="Rectangle 129" width="13.924" height="0.622" transform="translate(44.228 49.026) rotate(135)" fill="#fff"/>
        <rect id="Rectangle_130" data-name="Rectangle 130" width="8.671" height="0.623" transform="translate(8.42 84.834) rotate(135)" fill="#fff"/>
        <rect id="Rectangle_131" data-name="Rectangle 131" width="30.054" height="0.623" transform="translate(80.197 12.177) rotate(-45)" fill="#fff"/>
        <rect id="Rectangle_132" data-name="Rectangle 132" width="32.826" height="0.623" transform="translate(46.143 46.231) rotate(-45)" fill="#fff"/>
        <rect id="Rectangle_133" data-name="Rectangle 133" width="8.672" height="0.623" transform="translate(78.282 14.972) rotate(135)" fill="#fff"/>
        <rect id="Rectangle_134" data-name="Rectangle 134" width="30.054" height="0.623" transform="translate(60.945 38.032) rotate(135)" fill="#fff"/>
        <rect id="Rectangle_135" data-name="Rectangle 135" width="32.826" height="0.623" transform="translate(16.649 82.327) rotate(135)" fill="#fff"/>
        <rect id="Rectangle_136" data-name="Rectangle 136" width="13.924" height="0.623" transform="translate(37.338 61.639) rotate(135)" fill="#fff"/>
        <rect id="Rectangle_137" data-name="Rectangle 137" width="8.672" height="0.623" transform="translate(25.137 73.84) rotate(135)" fill="#fff"/>
        <rect id="Rectangle_138" data-name="Rectangle 138" width="32.826" height="0.623" transform="translate(86.511 12.465) rotate(135)" fill="#fff"/>
        <rect id="Rectangle_139" data-name="Rectangle 139" width="8.672" height="0.623" transform="translate(94.999 3.978) rotate(135)" fill="#fff"/>
        <rect id="Rectangle_140" data-name="Rectangle 140" width="30.054" height="0.622" transform="translate(59.026 28.506) rotate(135)" fill="#fff"/>
        <rect id="Rectangle_141" data-name="Rectangle 141" width="32.826" height="0.622" transform="translate(93.08 -5.548) rotate(135)" fill="#fff"/>
        <rect id="Rectangle_142" data-name="Rectangle 142" width="13.924" height="0.623" transform="translate(25.134 61.518) rotate(-45)" fill="#fff"/>
        <rect id="Rectangle_143" data-name="Rectangle 143" width="8.672" height="0.622" transform="translate(60.942 25.71) rotate(-45)" fill="#fff"/>
        <rect id="Rectangle_144" data-name="Rectangle 144" width="32.826" height="0.623" transform="translate(23.218 64.314) rotate(135)" fill="#fff"/>
        <rect id="Rectangle_145" data-name="Rectangle 145" width="30.054" height="0.622" transform="translate(17.083 63.846) rotate(-45)" fill="#fff"/>
        <rect id="Rectangle_146" data-name="Rectangle 146" width="32.826" height="0.623" transform="translate(61.378 19.551) rotate(-45)" fill="#fff"/>
        <rect id="Rectangle_147" data-name="Rectangle 147" width="13.924" height="0.623" transform="translate(40.69 40.239) rotate(-45)" fill="#fff"/>
        <rect id="Rectangle_148" data-name="Rectangle 148" width="8.672" height="0.623" transform="translate(52.891 28.038) rotate(-45)" fill="#fff"/>
        <rect id="Rectangle_149" data-name="Rectangle 149" width="32.826" height="0.622" transform="translate(-8.484 89.413) rotate(-45)" fill="#fff"/>
        <rect id="Rectangle_150" data-name="Rectangle 150" width="30.054" height="0.622" transform="translate(-1.109 70.594) rotate(-45)" fill="#fff"/>
        <rect id="Rectangle_151" data-name="Rectangle 151" width="13.924" height="0.623" transform="translate(32.783 37.582) rotate(135)" fill="#fff"/>
        <rect id="Rectangle_152" data-name="Rectangle 152" width="8.672" height="0.622" transform="translate(-3.024 73.39) rotate(135)" fill="#8d8c92"/>
        <rect id="Rectangle_153" data-name="Rectangle 153" width="30.054" height="0.622" transform="translate(68.753 0.732) rotate(-45)" fill="#fff"/>
        <rect id="Rectangle_154" data-name="Rectangle 154" width="32.826" height="0.623" transform="translate(34.699 34.786) rotate(-45)" fill="#fff"/>
        <rect id="Rectangle_155" data-name="Rectangle 155" width="8.672" height="0.623" transform="translate(66.837 3.528) rotate(135)" fill="#fff"/>
        <rect id="Rectangle_156" data-name="Rectangle 156" width="30.054" height="0.622" transform="translate(49.5 26.587) rotate(135)" fill="#fff"/>
        <rect id="Rectangle_157" data-name="Rectangle 157" width="32.826" height="0.623" transform="translate(5.205 70.883) rotate(135)" fill="#fff"/>
        <rect id="Rectangle_158" data-name="Rectangle 158" width="13.924" height="0.623" transform="translate(25.893 50.194) rotate(135)" fill="#fff"/>
        <rect id="Rectangle_159" data-name="Rectangle 159" width="8.671" height="0.623" transform="translate(13.692 62.395) rotate(135)" fill="#fff"/>
        <rect id="Rectangle_160" data-name="Rectangle 160" width="32.826" height="0.623" transform="translate(75.067 1.021) rotate(135)" fill="#fff"/>
        <rect id="Rectangle_161" data-name="Rectangle 161" width="8.671" height="0.623" transform="translate(83.554 -7.467) rotate(135)" fill="#fff"/>
        <rect id="Rectangle_162" data-name="Rectangle 162" width="30.054" height="0.622" transform="translate(51.272 12.49) rotate(-45)" fill="#fff"/>
        <rect id="Rectangle_163" data-name="Rectangle 163" width="32.826" height="0.622" transform="translate(17.218 46.544) rotate(-45)" fill="#fff"/>
        <rect id="Rectangle_164" data-name="Rectangle 164" width="13.924" height="0.622" transform="translate(-3.47 67.233) rotate(-45)" fill="#fff"/>
        <rect id="Rectangle_165" data-name="Rectangle 165" width="8.672" height="0.622" transform="translate(8.731 55.031) rotate(-45)" fill="#fff"/>
        <rect id="Rectangle_166" data-name="Rectangle 166" width="13.924" height="0.622" transform="translate(85.165 -20.522) rotate(135)" fill="#8d8c92"/>
        <rect id="Rectangle_167" data-name="Rectangle 167" width="8.672" height="0.623" transform="translate(49.357 15.286) rotate(135)" fill="#fff"/>
        <rect id="Rectangle_168" data-name="Rectangle 168" width="30.054" height="0.622" transform="translate(39.386 19.535) rotate(135)" fill="#fff"/>
        <rect id="Rectangle_169" data-name="Rectangle 169" width="13.924" height="0.622" transform="translate(15.779 43.141) rotate(135)" fill="#fff"/>
        <rect id="Rectangle_170" data-name="Rectangle 170" width="8.671" height="0.622" transform="translate(3.578 55.342) rotate(135)" fill="#fff"/>
        <rect id="Rectangle_171" data-name="Rectangle 171" width="32.826" height="0.623" transform="translate(64.953 -6.032) rotate(135)" fill="#fff"/>
        <rect id="Rectangle_172" data-name="Rectangle 172" width="8.671" height="0.623" transform="translate(73.44 -14.519) rotate(135)" fill="#8d8c92"/>
        <rect id="Rectangle_173" data-name="Rectangle 173" width="30.054" height="0.622" transform="translate(64.397 -16.921) rotate(135)" fill="#fff"/>
        <rect id="Rectangle_174" data-name="Rectangle 174" width="13.924" height="0.622" transform="translate(30.504 16.092) rotate(-45)" fill="#fff"/>
        <rect id="Rectangle_175" data-name="Rectangle 175" width="32.826" height="0.623" transform="translate(28.589 18.887) rotate(135)" fill="#fff"/>
        <rect id="Rectangle_176" data-name="Rectangle 176" width="8.671" height="0.623" transform="translate(-3.55 50.146) rotate(-45)" fill="#fff"/>
        <rect id="Rectangle_177" data-name="Rectangle 177" width="30.054" height="0.623" transform="translate(31.45 20.868) rotate(-45)" fill="#fff"/>
        <rect id="Rectangle_178" data-name="Rectangle 178" width="13.924" height="0.623" transform="translate(55.057 -2.739) rotate(-45)" fill="#fff"/>
        <rect id="Rectangle_179" data-name="Rectangle 179" width="32.826" height="0.623" transform="translate(5.883 46.435) rotate(-45)" fill="#fff"/>
        <rect id="Rectangle_180" data-name="Rectangle 180" width="8.671" height="0.622" transform="translate(-2.604 54.922) rotate(-45)" fill="#fff"/>
        <rect id="Rectangle_181" data-name="Rectangle 181" width="30.054" height="0.622" transform="translate(36.137 5.617) rotate(135)" fill="#fff"/>
        <rect id="Rectangle_182" data-name="Rectangle 182" width="32.826" height="0.622" transform="translate(70.191 -28.437) rotate(135)" fill="#fff"/>
        <rect id="Rectangle_183" data-name="Rectangle 183" width="13.924" height="0.623" transform="translate(2.244 38.629) rotate(-45)" fill="#fff"/>
        <rect id="Rectangle_184" data-name="Rectangle 184" width="8.672" height="0.622" transform="translate(38.052 2.821) rotate(-45)" fill="#fff"/>
        <rect id="Rectangle_185" data-name="Rectangle 185" width="32.826" height="0.623" transform="translate(0.329 41.424) rotate(135)" fill="#8d8c92"/>
        <rect id="Rectangle_186" data-name="Rectangle 186" width="30.054" height="0.623" transform="translate(24.397 10.754) rotate(-45)" fill="#fff"/>
        <rect id="Rectangle_187" data-name="Rectangle 187" width="13.924" height="0.622" transform="translate(48.004 -12.853) rotate(-45)" fill="#8d8c92"/>
        <rect id="Rectangle_188" data-name="Rectangle 188" width="32.826" height="0.623" transform="translate(-1.17 36.321) rotate(-45)" fill="#fff"/>
        <rect id="Rectangle_189" data-name="Rectangle 189" width="8.672" height="0.623" transform="translate(-9.657 44.808) rotate(-45)" fill="#8d8c92"/>
        <rect id="Rectangle_190" data-name="Rectangle 190" width="30.054" height="0.622" transform="translate(-23.998 47.705) rotate(-45)" fill="#8d8c92"/>
        <rect id="Rectangle_191" data-name="Rectangle 191" width="13.924" height="0.623" transform="translate(9.894 14.692) rotate(135)" fill="#fff"/>
        <rect id="Rectangle_192" data-name="Rectangle 192" width="32.826" height="0.623" transform="translate(11.81 11.897) rotate(-45)" fill="#fff"/>
        <rect id="Rectangle_193" data-name="Rectangle 193" width="30.054" height="0.622" transform="translate(26.611 3.698) rotate(135)" fill="#fff"/>
        <rect id="Rectangle_194" data-name="Rectangle 194" width="13.924" height="0.622" transform="translate(3.004 27.305) rotate(135)" fill="#8d8c92"/>
        <rect id="Rectangle_195" data-name="Rectangle 195" width="32.826" height="0.623" transform="translate(52.178 -21.869) rotate(135)" fill="#fff"/>
      </g>
    </g>
    <g id="Group_144" data-name="Group 144" transform="translate(-606.275 -233.887)" opacity="0.31">
      <path id="Path_199" data-name="Path 199" d="M618.034,260.357l-10.167-5.87v11.74Zm-1.529,0-7.874,4.546v-9.092Z" fill="#fff"/>
      <path id="Path_200" data-name="Path 200" d="M669.787,260.357l-10.167-5.87v11.74Zm-1.529,0-7.874,4.546v-9.092Z" transform="translate(-34.364)" fill="#fff"/>
      <path id="Path_201" data-name="Path 201" d="M721.54,260.357l-10.168-5.87v11.74Zm-1.529,0-7.874,4.546v-9.092Z" transform="translate(-68.727)" fill="#fff"/>
      <path id="Path_202" data-name="Path 202" d="M773.293,260.357l-10.168-5.87v11.74Zm-1.529,0-7.874,4.546v-9.092Z" transform="translate(-103.091)" fill="#fff"/>
    </g>
    <g id="Group_167" data-name="Group 167" transform="translate(-316.275 -179.887)" opacity="0.31">
      <path id="Path_199-2" data-name="Path 199" d="M618.034,260.357l-10.167-5.87v11.74Zm-1.529,0-7.874,4.546v-9.092Z" fill="#fff"/>
      <path id="Path_200-2" data-name="Path 200" d="M669.787,260.357l-10.167-5.87v11.74Zm-1.529,0-7.874,4.546v-9.092Z" transform="translate(-34.364)" fill="#fff"/>
      <path id="Path_201-2" data-name="Path 201" d="M721.54,260.357l-10.168-5.87v11.74Zm-1.529,0-7.874,4.546v-9.092Z" transform="translate(-68.727)" fill="#fff"/>
      <path id="Path_202-2" data-name="Path 202" d="M773.293,260.357l-10.168-5.87v11.74Zm-1.529,0-7.874,4.546v-9.092Z" transform="translate(-103.091)" fill="#fff"/>
    </g>
    <g id="Group_157" data-name="Group 157" transform="translate(-368.275 -141.887)" opacity="0.31">
      <path id="Path_199-3" data-name="Path 199" d="M618.034,260.357l-10.167-5.87v11.74Zm-1.529,0-7.874,4.546v-9.092Z" fill="#fff"/>
      <path id="Path_200-3" data-name="Path 200" d="M669.787,260.357l-10.167-5.87v11.74Zm-1.529,0-7.874,4.546v-9.092Z" transform="translate(-34.364)" fill="#fff"/>
      <path id="Path_201-3" data-name="Path 201" d="M721.54,260.357l-10.168-5.87v11.74Zm-1.529,0-7.874,4.546v-9.092Z" transform="translate(-68.727)" fill="#fff"/>
      <path id="Path_202-3" data-name="Path 202" d="M773.293,260.357l-10.168-5.87v11.74Zm-1.529,0-7.874,4.546v-9.092Z" transform="translate(-103.091)" fill="#fff"/>
    </g>
    <g id="Group_155" data-name="Group 155" transform="translate(-373.577 -733.826)" opacity="0.29">
      <path id="Path_217" data-name="Path 217" d="M627.751,755.594a.833.833,0,1,1-.833-.833A.833.833,0,0,1,627.751,755.594Z" fill="#fff"/>
      <path id="Path_218" data-name="Path 218" d="M655.751,755.594a.833.833,0,1,1-.833-.833A.833.833,0,0,1,655.751,755.594Z" transform="translate(-19.573)" fill="#fff"/>
      <path id="Path_219" data-name="Path 219" d="M683.751,755.594a.833.833,0,1,1-.833-.833A.833.833,0,0,1,683.751,755.594Z" transform="translate(-39.146)" fill="#fff"/>
    </g>
    <g id="Group_156" data-name="Group 156" transform="translate(-535.577 -634.826)" opacity="0.29">
      <path id="Path_217-2" data-name="Path 217" d="M627.751,755.594a.833.833,0,1,1-.833-.833A.833.833,0,0,1,627.751,755.594Z" fill="#fff"/>
      <path id="Path_218-2" data-name="Path 218" d="M655.751,755.594a.833.833,0,1,1-.833-.833A.833.833,0,0,1,655.751,755.594Z" transform="translate(-19.573)" fill="#fff"/>
      <path id="Path_219-2" data-name="Path 219" d="M683.751,755.594a.833.833,0,1,1-.833-.833A.833.833,0,0,1,683.751,755.594Z" transform="translate(-39.146)" fill="#fff"/>
    </g>
    <g id="Group_158" data-name="Group 158" transform="translate(1115.361 -484.577) rotate(90)" opacity="0.29">
      <path id="Path_217-3" data-name="Path 217" d="M627.751,755.594a.833.833,0,1,1-.833-.833A.833.833,0,0,1,627.751,755.594Z" fill="#fff"/>
      <path id="Path_218-3" data-name="Path 218" d="M655.751,755.594a.833.833,0,1,1-.833-.833A.833.833,0,0,1,655.751,755.594Z" transform="translate(-19.573)" fill="#fff"/>
      <path id="Path_219-3" data-name="Path 219" d="M683.751,755.594a.833.833,0,1,1-.833-.833A.833.833,0,0,1,683.751,755.594Z" transform="translate(-39.146)" fill="#fff"/>
    </g>
    <g id="Group_159" data-name="Group 159" transform="translate(1115.361 -459.577) rotate(90)" opacity="0.29">
      <path id="Path_217-4" data-name="Path 217" d="M627.751,755.594a.833.833,0,1,1-.833-.833A.833.833,0,0,1,627.751,755.594Z" fill="#fff"/>
      <path id="Path_218-4" data-name="Path 218" d="M655.751,755.594a.833.833,0,1,1-.833-.833A.833.833,0,0,1,655.751,755.594Z" transform="translate(-19.573)" fill="#fff"/>
      <path id="Path_219-4" data-name="Path 219" d="M683.751,755.594a.833.833,0,1,1-.833-.833A.833.833,0,0,1,683.751,755.594Z" transform="translate(-39.146)" fill="#fff"/>
    </g>
    <g id="Group_160" data-name="Group 160" transform="translate(1115.361 -434.577) rotate(90)" opacity="0.29">
      <path id="Path_217-5" data-name="Path 217" d="M627.751,755.594a.833.833,0,1,1-.833-.833A.833.833,0,0,1,627.751,755.594Z" fill="#fff"/>
      <path id="Path_218-5" data-name="Path 218" d="M655.751,755.594a.833.833,0,1,1-.833-.833A.833.833,0,0,1,655.751,755.594Z" transform="translate(-19.573)" fill="#fff"/>
      <path id="Path_219-5" data-name="Path 219" d="M683.751,755.594a.833.833,0,1,1-.833-.833A.833.833,0,0,1,683.751,755.594Z" transform="translate(-39.146)" fill="#fff"/>
    </g>
  </g>
</svg>
