<svg xmlns="http://www.w3.org/2000/svg" xmlns:xlink="http://www.w3.org/1999/xlink" width="159.368" height="48.368" viewBox="0 0 159.368 48.368">
  <defs>
    <radialGradient id="radial-gradient" cx="0.483" cy="0.494" r="0.036" gradientTransform="matrix(1.716, -0.327, 21.762, 34.615, -1367.435, -606.232)" gradientUnits="objectBoundingBox">
      <stop offset="0"/>
      <stop offset="1" stop-opacity="0"/>
    </radialGradient>
  </defs>
  <g id="Group_45" data-name="Group 45" transform="translate(-29.632 -460.632)">
    <g id="Group_7" data-name="Group 7" transform="translate(0 110)">
      <g id="Group_6" data-name="Group 6" transform="translate(39 181)">
        <text id="_15_Dec_-_6:20_AM" data-name="15 Dec - 6:20 AM" transform="translate(54 212)" fill="#516b9e" font-size="12" font-family="Montserrat-Light, Montserrat" font-weight="300" opacity="0.49"><tspan x="0" y="0">15 Dec - 6:20 AM</tspan></text>
        <text id="Netflix" transform="translate(54 190)" fill="#516b9e" font-size="18" font-family="Montserrat-Bold, Montserrat" font-weight="700"><tspan x="0" y="0">Netflix</tspan></text>
      </g>
    </g>
    <g id="Group_41" data-name="Group 41" transform="translate(-4811.14 882.971)">
      <path id="Path_82" data-name="Path 82" d="M4876.391-422.339h-22.87a12.925,12.925,0,0,0-12.749,13.021v22.327a12.925,12.925,0,0,0,12.749,13.021h22.87a12.924,12.924,0,0,0,12.749-13.021v-22.327A12.924,12.924,0,0,0,4876.391-422.339Z" fill="#ff646c"/>
      <g id="Group_40" data-name="Group 40" transform="translate(4857.794 -412)">
        <path id="path4155" d="M4890.1-402.818l-.01,6.048-.011,6.048-.5-1.4v0l-.645,13.464c.633,1.785.972,2.74.976,2.743s.364.025.8.047c1.317.065,2.952.2,4.194.36a2.867,2.867,0,0,0,.552.04c.017-.014.021-6.17.017-13.684l-.011-13.659Z" transform="translate(-4880.396 402.839)" fill="#b1060f"/>
        <path id="path4157" d="M4872.846-402.855v13.673c0,7.52.007,13.68.018,13.691s.475-.036,1.037-.1,1.336-.14,1.722-.172c.59-.05,2.361-.162,2.563-.166.062,0,.064-.306.072-5.792l.011-5.792.429,1.21c.065.187.086.245.151.428l.645-13.461c-.137-.385-.065-.184-.22-.622-.525-1.487-.972-2.743-.99-2.8l-.036-.1h-5.4Z" transform="translate(-4872.846 402.858)" fill="#b1060f"/>
        <g id="Group_39" data-name="Group 39">
          <path id="Path_83" data-name="Path 83" d="M4895.472-389.159l-.011-13.659H4890.1l-.01,6.048-.011,6.048-.5-1.4v0l-.645,13.464c.633,1.785.972,2.74.976,2.743s.364.025.8.047c1.317.065,2.952.2,4.194.36a2.867,2.867,0,0,0,.552.04C4895.472-375.49,4895.476-381.646,4895.472-389.159Z" transform="translate(-4880.396 402.839)" fill="#fff"/>
          <path id="Path_84" data-name="Path 84" d="M4878.281-402.757l-.036-.1h-5.4v13.677c0,7.52.007,13.68.018,13.691s.475-.036,1.037-.1,1.336-.14,1.722-.172c.59-.05,2.361-.162,2.563-.166.062,0,.064-.306.072-5.792l.011-5.792.429,1.21c.065.187.086.245.151.428l.645-13.461c-.137-.385-.065-.184-.22-.622C4878.746-401.444,4878.3-402.7,4878.281-402.757Z" transform="translate(-4872.846 402.858)" fill="#fff"/>
        </g>
        <path id="path5719" d="M4872.846-402.855v7.676l5.408,14.343c0-.328,0-.508,0-.882l.011-5.792.429,1.21c2.375,6.739,3.654,10.354,3.662,10.361s.363.025.8.047c1.317.065,2.952.2,4.194.36a2.855,2.855,0,0,0,.551.04c.01-.011.018-3.028.018-7.286l-5.378-15.473,0,1.465-.01,6.048-.5-1.4c-.486-1.371-.811-2.29-2.766-7.812-.525-1.487-.972-2.743-.989-2.8l-.037-.1h-5.393v0Z" transform="translate(-4872.846 402.858)" fill="url(#radial-gradient)"/>
        <path id="path5721" d="M4872.846-402.855l5.418,15.354v-.007l.428,1.21c2.379,6.736,3.658,10.35,3.666,10.357s.363.025.8.047c1.317.065,2.952.2,4.194.36a2.821,2.821,0,0,0,.547.04l-5.371-15.25v0l-.5-1.4c-.486-1.371-.811-2.29-2.766-7.812-.525-1.487-.972-2.743-.989-2.8l-.037-.1h-2.7l-2.7,0Z" transform="translate(-4872.846 402.858)" fill="#fff"/>
      </g>
    </g>
  </g>
</svg>
