<svg xmlns="http://www.w3.org/2000/svg" width="47.999" height="47.999" viewBox="0 0 47.999 47.999">
  <g id="Group_42" data-name="Group 42" transform="translate(-4494.24 422.339)">
    <path id="Path_85" data-name="Path 85" d="M4529.588-422.339h-22.7a12.827,12.827,0,0,0-12.652,12.921v22.156a12.827,12.827,0,0,0,12.652,12.921h22.7a12.826,12.826,0,0,0,12.651-12.921v-22.156A12.826,12.826,0,0,0,4529.588-422.339Z" transform="translate(0 0)" fill="#67e28c"/>
    <path id="Path_86" data-name="Path 86" d="M4526.761-402.9a14.158,14.158,0,0,0-14.158,14.158,14.158,14.158,0,0,0,14.158,14.159,14.159,14.159,0,0,0,14.16-14.159,14.159,14.159,0,0,0-14.16-14.158Zm6.494,20.42a.883.883,0,0,1-1.214.294c-3.324-2.032-7.509-2.491-12.437-1.365a.882.882,0,0,1-1.056-.664.881.881,0,0,1,.663-1.057c5.395-1.233,10.02-.7,13.751,1.578a.883.883,0,0,1,.293,1.214Zm1.733-3.854a1.1,1.1,0,0,1-1.519.363,18.584,18.584,0,0,0-14.108-1.65,1.106,1.106,0,0,1-1.378-.735,1.106,1.106,0,0,1,.737-1.377,20.656,20.656,0,0,1,15.9,1.881,1.1,1.1,0,0,1,.364,1.517Zm.149-4.014c-4.564-2.71-12.092-2.959-16.449-1.637a1.324,1.324,0,0,1-1.651-.882,1.324,1.324,0,0,1,.882-1.652c5-1.518,13.316-1.225,18.57,1.893a1.325,1.325,0,0,1,.461,1.815,1.323,1.323,0,0,1-1.813.463Z" transform="translate(-8.691 -9.201)" fill="#fff"/>
  </g>
</svg>
