<svg xmlns="http://www.w3.org/2000/svg" xmlns:xlink="http://www.w3.org/1999/xlink" width="115" height="301" viewBox="0 0 115 301">
  <defs>
    <linearGradient id="linear-gradient" x1="0.5" y1="1.048" x2="0.5" y2="-0.087" gradientUnits="objectBoundingBox">
      <stop offset="0.011" stop-color="#82acff" stop-opacity="0"/>
      <stop offset="0.096" stop-color="#82a9ff" stop-opacity="0.043"/>
      <stop offset="0.243" stop-color="#83a3ff" stop-opacity="0.153"/>
      <stop offset="0.434" stop-color="#8698ff" stop-opacity="0.333"/>
      <stop offset="0.663" stop-color="#8989ff" stop-opacity="0.584"/>
      <stop offset="0.921" stop-color="#8d77ff" stop-opacity="0.898"/>
      <stop offset="1" stop-color="#8f71ff"/>
    </linearGradient>
    <filter id="Rectangle_30" x="0" y="0" width="115" height="63" filterUnits="userSpaceOnUse">
      <feOffset dy="3" input="SourceAlpha"/>
      <feGaussianBlur stdDeviation="3" result="blur"/>
      <feFlood flood-color="#8f71ff" flood-opacity="0.329"/>
      <feComposite operator="in" in2="blur"/>
      <feComposite in="SourceGraphic"/>
    </filter>
    <filter id="Polygon_1" x="36" y="41" width="44" height="41" filterUnits="userSpaceOnUse">
      <feOffset dy="3" input="SourceAlpha"/>
      <feGaussianBlur stdDeviation="3" result="blur-2"/>
      <feFlood flood-color="#8f71ff" flood-opacity="0.341"/>
      <feComposite operator="in" in2="blur-2"/>
      <feComposite in="SourceGraphic"/>
    </filter>
  </defs>
  <g id="Group_173" data-name="Group 173" transform="translate(-135 -336)">
    <rect id="Rectangle_29" data-name="Rectangle 29" width="54" height="272" rx="27" transform="translate(167 365)" opacity="0.32" fill="url(#linear-gradient)"/>
    <g id="Path_91" data-name="Path 91" transform="translate(-3343.665 -1621.912)" fill="#8f71ff">
      <path d="M 3537.434814453125 2059.966552734375 C 3533.9716796875 2059.966552734375 3530.71533203125 2058.61767578125 3528.265625 2056.168701171875 C 3525.815185546875 2053.71875 3524.465576171875 2050.461669921875 3524.465576171875 2046.997314453125 C 3524.465576171875 2043.532592773438 3525.815185546875 2040.275146484375 3528.265625 2037.825317382813 C 3530.71533203125 2035.3759765625 3533.9716796875 2034.027099609375 3537.434814453125 2034.027099609375 C 3540.89990234375 2034.027099609375 3544.157958984375 2035.375854492188 3546.608642578125 2037.824951171875 C 3549.059814453125 2040.274780273438 3550.40966796875 2043.5322265625 3550.40966796875 2046.997314453125 C 3550.40966796875 2050.462158203125 3549.059814453125 2053.71923828125 3546.6083984375 2056.1689453125 C 3544.157958984375 2058.617919921875 3540.89990234375 2059.966552734375 3537.434814453125 2059.966552734375 Z" stroke="none"/>
      <path d="M 3537.434814453125 2057.966552734375 C 3543.494873046875 2057.966552734375 3548.40966796875 2053.056640625 3548.40966796875 2046.997314453125 C 3548.40966796875 2040.937133789063 3543.494873046875 2036.027099609375 3537.434814453125 2036.027099609375 C 3531.3798828125 2036.027099609375 3526.465576171875 2040.937133789063 3526.465576171875 2046.997314453125 C 3526.465576171875 2053.056640625 3531.3798828125 2057.966552734375 3537.434814453125 2057.966552734375 M 3537.434814453125 2061.966552734375 C 3535.41650390625 2061.966552734375 3533.4560546875 2061.5703125 3531.6083984375 2060.788818359375 C 3529.825439453125 2060.03466796875 3528.22509765625 2058.9560546875 3526.8515625 2057.5830078125 C 3525.477783203125 2056.20947265625 3524.398681640625 2054.609130859375 3523.644287109375 2052.826171875 C 3522.862060546875 2050.97802734375 3522.465576171875 2049.016845703125 3522.465576171875 2046.997314453125 C 3522.465576171875 2044.977661132813 3522.862060546875 2043.016479492188 3523.644287109375 2041.16796875 C 3524.398681640625 2039.384887695313 3525.477783203125 2037.784423828125 3526.8515625 2036.410888671875 C 3528.22509765625 2035.037719726563 3529.825439453125 2033.958984375 3531.608154296875 2033.204956054688 C 3533.4560546875 2032.42333984375 3535.41650390625 2032.027099609375 3537.434814453125 2032.027099609375 C 3539.4541015625 2032.027099609375 3541.415283203125 2032.423217773438 3543.263671875 2033.20458984375 C 3545.04736328125 2033.958618164063 3546.6484375 2035.037109375 3548.0224609375 2036.410400390625 C 3549.396728515625 2037.783813476563 3550.47607421875 2039.384399414063 3551.230712890625 2041.167724609375 C 3552.012939453125 2043.01611328125 3552.40966796875 2044.9775390625 3552.40966796875 2046.997314453125 C 3552.40966796875 2049.016845703125 3552.012939453125 2050.978271484375 3551.230712890625 2052.82666015625 C 3550.47607421875 2054.609619140625 3549.396484375 2056.210205078125 3548.022216796875 2057.58349609375 C 3546.648193359375 2058.956787109375 3545.047119140625 2060.03515625 3543.263671875 2060.7890625 C 3541.415283203125 2061.5703125 3539.4541015625 2061.966552734375 3537.434814453125 2061.966552734375 Z" stroke="none" fill="#fff"/>
    </g>
    <g id="Group_49" data-name="Group 49" transform="translate(5 -27)">
      <g transform="matrix(1, 0, 0, 1, 130, 363)" filter="url(#Rectangle_30)">
        <rect id="Rectangle_30-2" data-name="Rectangle 30" width="97" height="45" rx="10" transform="translate(9 6)" fill="#8f71ff"/>
      </g>
      <g transform="matrix(1, 0, 0, 1, 130, 363)" filter="url(#Polygon_1)">
        <path id="Polygon_1-2" data-name="Polygon 1" d="M10.388,4.621a3,3,0,0,1,5.223,0l7.858,13.9A3,3,0,0,1,20.858,23H5.142A3,3,0,0,1,2.53,18.524Z" transform="translate(71 70) rotate(180)" fill="#8f71ff"/>
      </g>
      <text id="_324.99" data-name="$ 324.99" transform="translate(154 397)" fill="#fff" font-size="16" font-family="Montserrat-Medium, Montserrat" font-weight="500"><tspan x="0" y="0">$ 324.99</tspan></text>
    </g>
  </g>
</svg>
