<svg xmlns="http://www.w3.org/2000/svg" xmlns:xlink="http://www.w3.org/1999/xlink" width="48" height="48" viewBox="0 0 48 48">
  <defs>
    <clipPath id="clip-path">
      <path id="Path_194" data-name="Path 194" d="M10,0H38A10,10,0,0,1,48,10V38A10,10,0,0,1,38,48H10A10,10,0,0,1,0,38V10A10,10,0,0,1,10,0Z" transform="translate(749 -81)" fill="#081839"/>
    </clipPath>
  </defs>
  <g id="Mask_Group_1" data-name="Mask Group 1" transform="translate(-749 81)" clip-path="url(#clip-path)">
    <g id="Group_140" data-name="Group 140" transform="translate(625.019 -319.087)">
      <path id="Path_87" data-name="Path 87" d="M153.222,253.749a16.905,16.905,0,0,1,.109-6.457,3.544,3.544,0,0,1,2.385-2.373c.021-.006.422-2.661,5.881-2.861s9.788,2.124,8.726,11.706l-1.364,2.166-7.412-7.16s-6.352,4.109-6.912,6.061S153.222,253.749,153.222,253.749Z" transform="translate(-12.531 0)" fill="#162d5c"/>
      <path id="Path_88" data-name="Path 88" d="M169.506,315.27H128.624s0-11.995,1.855-13.181c1.235-.784,6.865-2.758,10.507-4,1.845-.63,3.179-1.067,3.179-1.067h9.8s1.349.442,3.209,1.077c3.641,1.24,9.242,3.2,10.472,3.989C169.506,303.275,169.506,315.27,169.506,315.27Z" transform="translate(0 -28.324)" fill="#ffd5c2"/>
      <path id="Path_89" data-name="Path 89" d="M170.479,290.441l-4.6.773v.128l-.383-.06-.375.06v-.128l-4.437-.773.24-1.938.526-4.257h8.1l.45,3.018Z" transform="translate(-16.515 -21.741)" fill="#ffd5c2"/>
      <path id="Path_90" data-name="Path 90" d="M170.253,287.264a17.443,17.443,0,0,1-9.078,1.239l.526-4.257h8.1Z" transform="translate(-16.77 -21.741)" fill="#f6ae8d"/>
      <path id="Path_91" data-name="Path 91" d="M184.985,267.976s.675-2.672,2.356-1.488,0,5.089-2.368,5.068C184.972,271.556,184.341,268.937,184.985,267.976Z" transform="translate(-28.887 -12.437)" fill="#ffd5c2"/>
      <path id="Path_92" data-name="Path 92" d="M187.42,269.375a2.165,2.165,0,0,0-.858.711,2.621,2.621,0,0,0-.582.944c-.028.108.123.156.186.082.176-.206.31-.445.472-.664a1.225,1.225,0,0,0,.488.3c.146.035.231-.151.156-.259a1.1,1.1,0,0,0-.41-.312,5.72,5.72,0,0,0,.673-.636A.11.11,0,0,0,187.42,269.375Z" transform="translate(-29.547 -14.077)" fill="#f6ae8d"/>
      <path id="Path_93" data-name="Path 93" d="M153.122,267.455s-.675-2.672-2.356-1.488,0,5.089,2.368,5.068C153.134,271.035,153.766,268.416,153.122,267.455Z" transform="translate(-11.057 -12.168)" fill="#ffd5c2"/>
      <path id="Path_94" data-name="Path 94" d="M152.527,268.854a2.167,2.167,0,0,1,.858.711,2.627,2.627,0,0,1,.583.944c.028.108-.124.156-.187.082-.176-.207-.31-.445-.472-.664a1.227,1.227,0,0,1-.488.3c-.146.035-.231-.151-.156-.259a1.1,1.1,0,0,1,.41-.312,5.7,5.7,0,0,1-.674-.636A.11.11,0,0,1,152.527,268.854Z" transform="translate(-12.238 -13.809)" fill="#f6ae8d"/>
      <path id="Path_95" data-name="Path 95" d="M169.976,255.516c-1.577-7.563-7.377-7.033-7.377-7.033s-5.8-.53-7.377,7.033a14.5,14.5,0,0,0,.674,8.416c1.023,2.514,2.987,5.221,6.7,5.221s5.68-2.707,6.7-5.221A14.5,14.5,0,0,0,169.976,255.516Z" transform="translate(-13.533 -3.312)" fill="#ffd5c2"/>
      <path id="Path_96" data-name="Path 96" d="M169.871,269.306c-.339-.033-1.1.206-1.278-.15a9.851,9.851,0,0,1,.367-2.421,30.138,30.138,0,0,0,.617-3.216.063.063,0,0,0-.119-.026,37.065,37.065,0,0,0-1.254,5.884.168.168,0,0,0,.17.2c.493-.032.978.048,1.471.026C170.01,269.6,170.045,269.324,169.871,269.306Z" transform="translate(-20.39 -11.032)" fill="#f6ae8d"/>
      <path id="Path_97" data-name="Path 97" d="M165.877,279.987h4.663s-.875,1.653-2.331,1.653S165.877,279.987,165.877,279.987Z" transform="translate(-19.192 -19.547)" fill="#fff"/>
      <path id="Path_98" data-name="Path 98" d="M163.568,266.594s-.638.237-.541-.892c.087-1.015.541-.878.541-.878s.443,0,.376.885S163.568,266.594,163.568,266.594Z" transform="translate(-17.719 -11.732)" fill="#3b2645"/>
      <path id="Path_99" data-name="Path 99" d="M176.121,266.594s-.638.237-.541-.892c.087-1.015.541-.878.541-.878s.443,0,.376.885S176.121,266.594,176.121,266.594Z" transform="translate(-24.186 -11.732)" fill="#3b2645"/>
      <path id="Path_100" data-name="Path 100" d="M163.8,261.389c-.548-.279-1.573-.353-1.972.217a.17.17,0,0,0,.146.254c.272-.014.513-.146.786-.169a2.215,2.215,0,0,1,.857.132A.239.239,0,0,0,163.8,261.389Z" transform="translate(-17.092 -9.856)" fill="#3b2645"/>
      <path id="Path_101" data-name="Path 101" d="M176.35,261.389c-.548-.279-1.573-.353-1.972.217a.17.17,0,0,0,.146.254c.272-.014.513-.146.786-.169a2.215,2.215,0,0,1,.857.132A.239.239,0,0,0,176.35,261.389Z" transform="translate(-23.559 -9.856)" fill="#3b2645"/>
      <path id="Path_102" data-name="Path 102" d="M157.532,251.456a19.892,19.892,0,0,0-3.285,7.323l-.732-1.283S154.714,250.412,157.532,251.456Z" transform="translate(-12.824 -4.794)" fill="#162d5c"/>
      <path id="Path_103" data-name="Path 103" d="M169.506,316.4H128.624s0-11.995,1.855-13.181c1.235-.784,6.865-2.758,10.507-4,.714,2.262,2.9,7.327,8.1,7.327s7.372-5.05,8.086-7.317c3.641,1.24,9.242,3.2,10.472,3.989C169.506,304.409,169.506,316.4,169.506,316.4Z" transform="translate(0 -29.458)" fill="#516b9e"/>
      <path id="Path_104" data-name="Path 104" d="M161.8,248.308s3.655,2.558,6.64,1.723,4.068,5.194,2.135,7.545c0,0,4.833-2.8,3.29-7.545S161.627,242.965,161.8,248.308Z" transform="translate(-17.09 -1.646)" fill="#162d5c"/>
    </g>
  </g>
</svg>
