<svg xmlns="http://www.w3.org/2000/svg" width="52.472" height="15.908" viewBox="0 0 52.472 15.908">
  <g id="visa" transform="translate(0 -175.6)">
    <path id="Path_222" data-name="Path 222" d="M184.8,195.392l2.665-14.992h4.164l-2.582,14.992Z" transform="translate(-165.56 -4.3)" fill="#fff"/>
    <path id="Path_223" data-name="Path 223" d="M184.8,195.392l3.415-14.992h3.415l-2.582,14.992Z" transform="translate(-165.56 -4.3)" fill="#fff"/>
    <path id="Path_224" data-name="Path 224" d="M260.743,176.266a10.564,10.564,0,0,0-3.831-.666c-4.164,0-7.163,2.082-7.163,5.081,0,2.249,2.082,3.415,3.748,4.164s2.166,1.249,2.166,1.916c0,1-1.333,1.5-2.5,1.5a9.053,9.053,0,0,1-4-.833l-.583-.25L248,190.592a13.5,13.5,0,0,0,4.748.833c4.414,0,7.329-2.082,7.329-5.247,0-1.749-1.083-3.082-3.581-4.164-1.5-.75-2.415-1.166-2.415-1.916,0-.666.75-1.333,2.415-1.333a7.639,7.639,0,0,1,3.165.583l.416.167.666-3.248Z" transform="translate(-222.18)" fill="#fff"/>
    <path id="Path_225" data-name="Path 225" d="M260.743,176.266a10.564,10.564,0,0,0-3.831-.666c-4.164,0-6.413,2.082-6.413,5.081,0,2.249,1.333,3.415,3,4.164s2.166,1.249,2.166,1.916c0,1-1.333,1.5-2.5,1.5a9.053,9.053,0,0,1-4-.833l-.583-.25L248,190.592a13.5,13.5,0,0,0,4.748.833c4.414,0,7.329-2.082,7.329-5.247,0-1.749-1.083-3.082-3.581-4.164-1.5-.75-2.415-1.166-2.415-1.916,0-.666.75-1.333,2.415-1.333a7.639,7.639,0,0,1,3.165.583l.416.167.666-3.248Z" transform="translate(-222.18)" fill="#fff"/>
    <path id="Path_226" data-name="Path 226" d="M366.812,180.4c-1,0-1.749.083-2.166,1.083L358.4,195.392h4.5l.833-2.5h5.331l.5,2.5h4l-3.5-14.992Zm-1.916,9.995c.25-.75,1.666-4.414,1.666-4.414s.333-.916.583-1.5l.25,1.416s.833,3.748,1,4.581h-3.5Z" transform="translate(-321.086 -4.3)" fill="#fff"/>
    <path id="Path_227" data-name="Path 227" d="M367.812,180.4c-1,0-1.749.083-2.166,1.083L358.4,195.392h4.5l.833-2.5h5.331l.5,2.5h4l-3.5-14.992Zm-2.915,9.995c.333-.833,1.666-4.414,1.666-4.414s.333-.916.583-1.5l.25,1.416s.833,3.748,1,4.581h-3.5Z" transform="translate(-321.086 -4.3)" fill="#fff"/>
    <path id="Path_228" data-name="Path 228" d="M57.447,191.611l-.416-2.166a12.074,12.074,0,0,0-5.83-6.58l3.748,13.326h4.5L66.192,181.2h-4.5Z" transform="translate(-45.869 -5.017)" fill="#fff"/>
    <path id="Path_229" data-name="Path 229" d="M57.447,191.611l-.416-2.166a12.074,12.074,0,0,0-5.83-6.58l3.748,13.326h4.5L66.192,181.2H62.527Z" transform="translate(-45.869 -5.017)" fill="#fff"/>
    <path id="Path_230" data-name="Path 230" d="M0,180.4l.75.167c5.331,1.249,9,4.414,10.411,8.162l-1.5-7.08c-.25-1-1-1.249-1.916-1.249Z" transform="translate(0 -4.3)" fill="#fff"/>
    <path id="Path_231" data-name="Path 231" d="M0,180.4H0c5.331,1.249,9.745,4.5,11.161,8.246l-1.416-5.914a2.033,2.033,0,0,0-2-1.582Z" transform="translate(0 -4.3)" fill="#fff"/>
    <path id="Path_232" data-name="Path 232" d="M0,180.4H0c5.331,1.249,9.745,4.5,11.161,8.246l-1-3.248a2.937,2.937,0,0,0-1.749-2.415Z" transform="translate(0 -4.3)" fill="#fff"/>
    <g id="Group_164" data-name="Group 164" transform="translate(5.414 177.766)">
      <path id="Path_233" data-name="Path 233" d="M62.328,204.729,59.5,201.9l-1.333,3.165-.333-2.082A12.074,12.074,0,0,0,52,196.4l3.748,13.326h4.5Z" transform="translate(-52 -196.4)" fill="#fff"/>
      <path id="Path_234" data-name="Path 234" d="M189.048,292.865l-3.581-3.665-.666,3.665Z" transform="translate(-170.974 -279.538)" fill="#fff"/>
      <path id="Path_235" data-name="Path 235" d="M255.246,274.8h0c.333.333.5.583.416.916,0,1-1.333,1.5-2.5,1.5a9.053,9.053,0,0,1-4-.833l-.583-.25L248,279.547a13.5,13.5,0,0,0,4.747.833c2.665,0,4.831-.75,6.08-2.082Z" transform="translate(-227.594 -266.638)" fill="#fff"/>
      <path id="Path_236" data-name="Path 236" d="M364,230.511h3.915l.833-2.5h5.331l.5,2.5h4l-1.416-6.08-5-4.831.25,1.333s.833,3.748,1,4.581h-3.5c.333-.833,1.666-4.414,1.666-4.414s.333-.916.583-1.5" transform="translate(-331.517 -217.185)" fill="#fff"/>
    </g>
  </g>
</svg>
